<?xml version="1.0" encoding="UTF-8"?>
<svg xmlns="http://www.w3.org/2000/svg" xmlns:xlink="http://www.w3.org/1999/xlink" width="48pt" height="48pt" viewBox="0 0 48 48" version="1.1">
<g id="surface733958">
<path style=" stroke:none;fill-rule:nonzero;fill:rgb(60.784314%,34.901961%,71.372549%);fill-opacity:1;" d="M 42 0 L 16 9.25 C 14.898438 9.617188 14 10.835938 14 11.9375 L 14 35.5625 C 13.09375 35.414062 12.070312 35.429688 11 35.6875 C 7.132812 36.632812 4 40.125 4 43.4375 C 4 46.75 7.132812 48.632812 11 47.6875 C 14.820312 46.757812 17.921875 43.398438 18 40.125 C 18 40.085938 18 40.039062 18 40 L 18 16.5625 L 40 8.6875 L 40 29.5625 C 39.09375 29.414062 38.070312 29.429688 37 29.6875 C 33.132812 30.632812 30 34.125 30 37.4375 C 30 40.75 33.132812 42.632812 37 41.6875 C 40.867188 40.742188 44 37.3125 44 34 L 44 2 C 44 0.898438 43.101562 0 42 0 Z M 42 0 "/>
</g>
</svg>
